<?xml version="1.0" standalone="no"?>
<!DOCTYPE svg PUBLIC "-//W3C//DTD SVG 20010904//EN"
 "http://www.w3.org/TR/2001/REC-SVG-20010904/DTD/svg10.dtd">
<svg version="1.0" xmlns="http://www.w3.org/2000/svg"
 width="543.000000pt" height="543.000000pt" viewBox="0 0 543.000000 543.000000"
 preserveAspectRatio="xMidYMid meet">
<metadata>
Created by potrace 1.11, written by Peter Selinger 2001-2013
</metadata>
<g transform="translate(0.000000,543.000000) scale(0.100000,-0.100000)"
fill="#000000" stroke="none">
<path d="M2308 3475 c-2 -2 -21 -6 -43 -9 -63 -10 -156 -60 -206 -113 -103
-106 -137 -232 -105 -380 18 -85 107 -180 261 -281 106 -70 137 -83 150 -62 8
13 -14 31 -123 101 -219 140 -285 253 -246 421 52 222 311 341 519 239 99 -49
187 -161 202 -256 3 -16 6 -34 6 -40 1 -6 -27 -10 -67 -10 l-69 0 -14 48 c-46
160 -262 209 -386 89 -81 -79 -83 -205 -4 -293 29 -33 141 -109 160 -109 46 0
27 31 -48 80 -115 75 -148 150 -107 242 47 108 203 133 300 49 23 -20 52 -88
52 -122 0 -10 8 -22 18 -27 14 -7 146 -9 200 -3 10 1 13 15 11 49 -10 164
-119 308 -275 363 -46 16 -177 33 -186 24z"/>
<path d="M5 3442 c-3 -8 -5 -166 -5 -352 0 -288 2 -339 15 -343 8 -4 18 -1 22
6 4 7 8 156 8 332 l0 320 63 0 c36 1 62 -3 63 -10 1 -5 2 -140 2 -300 1 -159
5 -295 9 -300 8 -12 432 -14 444 -2 5 4 8 144 9 310 l0 302 60 0 60 0 5 -325
c5 -317 6 -325 25 -325 20 0 20 7 21 343 1 321 -1 344 -17 350 -20 8 -187 7
-195 -1 -3 -2 -5 -142 -5 -311 l0 -306 -185 0 -184 0 0 305 c0 249 -3 307 -14
311 -7 3 -54 6 -105 7 -68 2 -92 -1 -96 -11z"/>
<path d="M3883 3452 c-13 -2 -24 -6 -24 -10 -5 -32 -3 -185 3 -195 5 -8 48
-12 140 -13 73 -1 136 -2 141 -3 4 -1 7 -284 7 -631 0 -412 3 -630 10 -631 6
-1 21 -1 35 -1 41 0 45 1 45 17 0 9 -10 19 -23 24 l-22 9 1 613 c0 338 -4 622
-8 632 -8 15 -25 17 -146 17 l-138 0 0 63 1 62 158 1 c158 1 196 9 170 35 -11
11 -292 19 -350 11z"/>
<path d="M4320 3452 c-34 -5 -47 -19 -32 -34 8 -8 63 -12 169 -12 l158 -1 3
-62 3 -63 -141 0 c-123 0 -141 -2 -147 -17 -4 -9 -7 -295 -7 -635 0 -583 -1
-618 -17 -618 -42 0 -33 -37 12 -45 53 -10 51 -35 51 638 1 452 4 627 12 629
6 2 67 3 136 2 69 -1 130 2 136 7 11 9 12 194 1 205 -6 7 -294 11 -337 6z"/>
<path d="M987 3444 c-4 -4 -7 -88 -7 -186 0 -168 1 -178 19 -178 10 0 21 6 23
13 2 6 4 78 3 160 0 94 3 147 10 148 47 5 93 5 105 0 13 -5 15 -77 16 -556 0
-607 -2 -584 64 -654 52 -54 140 -81 140 -43 0 11 -12 22 -34 30 -48 18 -84
48 -105 90 -16 31 -19 63 -20 212 -1 96 -2 182 -2 190 0 8 0 116 0 240 0 124
0 231 0 238 0 6 1 73 1 147 1 74 -1 138 -4 143 -7 11 -199 16 -209 6z"/>
<path d="M1574 3437 c-2 -7 -6 -267 -7 -578 l-2 -564 -27 -42 c-19 -29 -43
-49 -83 -68 -56 -26 -67 -47 -27 -53 29 -5 94 31 129 72 56 63 56 65 58 651 1
297 3 542 4 545 0 3 28 5 61 5 47 1 60 -3 61 -15 0 -8 2 -80 2 -160 2 -138 3
-145 22 -145 19 0 20 7 22 160 2 88 1 170 -2 183 -5 21 -10 22 -106 22 -73 0
-101 -4 -105 -13z"/>
<path d="M2935 3440 c-3 -5 -6 -148 -6 -317 0 -421 -2 -383 21 -383 24 0 22
-34 22 352 1 214 4 308 12 310 6 2 166 4 356 3 l345 0 3 -65 3 -65 -286 0
c-182 0 -289 -3 -294 -10 -9 -10 -13 -437 -5 -466 4 -14 24 -16 142 -17 178 0
170 1 168 -19 -1 -12 6 -18 19 -18 15 0 21 8 23 34 2 20 -2 37 -10 42 -7 5
-75 8 -152 8 -76 0 -141 2 -144 5 -4 5 -7 283 -3 373 l1 21 287 1 c167 1 289
5 293 11 4 7 5 172 1 203 -2 11 -789 9 -796 -3z"/>
<path d="M986 3033 c-3 -4 -6 -172 -6 -373 1 -395 5 -430 54 -515 37 -63 92
-113 161 -145 71 -34 98 -40 185 -40 84 -1 109 5 184 39 92 42 183 142 203
225 17 72 22 165 22 462 0 267 -3 335 -14 344 -10 8 -15 8 -22 -2 -4 -7 -9
-164 -10 -348 -1 -184 -4 -356 -8 -382 -16 -126 -105 -232 -230 -276 -85 -30
-223 -20 -301 21 -38 19 -104 81 -127 119 -48 76 -50 103 -51 488 -1 201 -5
371 -9 378 -9 13 -20 15 -31 5z"/>
<path d="M2394 2809 c-8 -14 5 -25 106 -89 131 -83 232 -189 243 -255 1 -11 5
-24 8 -30 13 -23 0 -143 -21 -199 -31 -82 -124 -175 -205 -206 -106 -39 -228
-32 -328 20 -86 45 -174 172 -190 273 l-6 37 75 0 c64 0 74 -2 74 -17 1 -26
34 -94 62 -124 39 -44 100 -69 166 -69 138 0 235 92 234 221 0 86 -38 145
-134 210 -53 36 -62 39 -75 27 -18 -18 -11 -26 64 -77 68 -46 97 -92 99 -155
4 -93 -64 -168 -163 -180 -49 -7 -116 15 -152 47 -30 27 -60 93 -61 130 0 15
-3 28 -7 29 -5 0 -53 2 -108 3 -75 2 -103 -1 -111 -11 -10 -13 -7 -52 10 -133
20 -92 134 -224 231 -267 208 -91 456 -4 553 196 58 118 57 241 0 354 -38 75
-160 179 -295 253 -47 26 -59 28 -69 12z"/>
<path d="M0 2335 c0 -340 1 -365 18 -366 72 -6 179 -3 189 4 10 7 13 84 13
323 l0 314 184 0 184 0 1 -316 c0 -174 2 -319 5 -322 12 -11 188 -8 200 4 9 9
12 103 12 365 l-1 354 -22 3 -23 3 0 -346 0 -346 -62 3 -63 3 0 310 c-1 171
-4 316 -9 323 -5 9 -64 12 -227 12 -120 0 -220 -3 -221 -7 0 -5 -2 -150 -3
-323 l-1 -315 -65 0 -64 0 -1 330 c-1 182 -2 336 -3 343 0 6 -10 12 -21 12
-20 0 -20 -7 -20 -365z"/>
<path d="M2934 2689 c-7 -12 -8 -704 0 -717 8 -13 785 -12 794 2 9 15 11 182
2 196 -5 9 -88 12 -294 11 l-286 -1 -1 33 c-1 44 -1 358 0 379 1 16 17 18 154
20 l152 3 3 34 c2 20 -2 37 -9 42 -15 9 -39 -7 -39 -25 0 -9 -41 -12 -146 -11
-89 0 -148 -3 -153 -10 -11 -13 -11 -476 -1 -495 7 -13 51 -15 287 -16 153 -1
281 -2 286 -3 4 0 7 -28 7 -61 0 -55 -2 -60 -22 -61 -156 -3 -678 0 -685 4 -6
4 -10 129 -11 329 0 178 -1 328 -1 334 -1 16 -29 26 -37 13z"/>
<path d="M5130 2412 c-97 -3 -124 -12 -102 -34 9 -9 56 -13 160 -13 81 0 147
-2 147 -5 0 -3 -75 -80 -167 -172 l-167 -166 -153 152 c-84 84 -161 161 -170
172 -18 20 -17 20 132 19 83 0 156 2 162 6 6 4 8 14 5 23 -6 14 -32 16 -202
16 -179 0 -195 -1 -195 -18 0 -21 399 -422 420 -422 21 0 420 401 420 422 0
14 -14 17 -97 20 -54 2 -141 2 -193 0z"/>
</g>
</svg>
